<mxfile host="app.diagrams.net" modified="2024-05-13T16:30:41.147Z" agent="Mozilla/5.0 (Windows NT 10.0; Win64; x64) AppleWebKit/537.36 (KHTML, like Gecko) Chrome/124.0.0.0 Safari/537.36" etag="C4_SdQHQX7qE5dD9FPIg" version="24.2.7" type="github">
  <diagram name="Page-1" id="2a216829-ef6e-dabb-86c1-c78162f3ba2b">
    <mxGraphModel dx="1235" dy="676" grid="1" gridSize="10" guides="1" tooltips="1" connect="1" arrows="1" fold="1" page="1" pageScale="1" pageWidth="850" pageHeight="1100" background="none" math="0" shadow="0">
      <root>
        <mxCell id="0" />
        <mxCell id="1" parent="0" />
        <mxCell id="2Lb6EE8QZ2UszaNFHXsS-1" value="供应商" style="swimlane;html=1;startSize=20;fontStyle=0;collapsible=0;horizontal=0;swimlaneLine=1;swimlaneFillColor=#ffffff;strokeWidth=2;whiteSpace=wrap;" vertex="1" parent="1">
          <mxGeometry x="60" y="133" width="670" height="100" as="geometry" />
        </mxCell>
        <mxCell id="2Lb6EE8QZ2UszaNFHXsS-4" value="" style="edgeStyle=orthogonalEdgeStyle;rounded=0;orthogonalLoop=1;jettySize=auto;html=1;" edge="1" parent="2Lb6EE8QZ2UszaNFHXsS-1" source="2Lb6EE8QZ2UszaNFHXsS-2" target="2Lb6EE8QZ2UszaNFHXsS-3">
          <mxGeometry relative="1" as="geometry" />
        </mxCell>
        <mxCell id="2Lb6EE8QZ2UszaNFHXsS-2" value="接收订单" style="points=[[0.145,0.145,0],[0.5,0,0],[0.855,0.145,0],[1,0.5,0],[0.855,0.855,0],[0.5,1,0],[0.145,0.855,0],[0,0.5,0]];shape=mxgraph.bpmn.event;html=1;verticalLabelPosition=bottom;labelBackgroundColor=#ffffff;verticalAlign=top;align=center;perimeter=ellipsePerimeter;outlineConnect=0;aspect=fixed;outline=standard;symbol=message;" vertex="1" parent="2Lb6EE8QZ2UszaNFHXsS-1">
          <mxGeometry x="120" y="25" width="50" height="50" as="geometry" />
        </mxCell>
        <mxCell id="2Lb6EE8QZ2UszaNFHXsS-6" value="" style="edgeStyle=orthogonalEdgeStyle;rounded=0;orthogonalLoop=1;jettySize=auto;html=1;" edge="1" parent="2Lb6EE8QZ2UszaNFHXsS-1" source="2Lb6EE8QZ2UszaNFHXsS-3" target="2Lb6EE8QZ2UszaNFHXsS-5">
          <mxGeometry relative="1" as="geometry" />
        </mxCell>
        <mxCell id="2Lb6EE8QZ2UszaNFHXsS-3" value="生产" style="rounded=1;whiteSpace=wrap;html=1;verticalAlign=top;labelBackgroundColor=#ffffff;" vertex="1" parent="2Lb6EE8QZ2UszaNFHXsS-1">
          <mxGeometry x="200" y="35" width="60" height="30" as="geometry" />
        </mxCell>
        <mxCell id="2Lb6EE8QZ2UszaNFHXsS-60" style="edgeStyle=orthogonalEdgeStyle;rounded=0;orthogonalLoop=1;jettySize=auto;html=1;exitX=1;exitY=0.5;exitDx=0;exitDy=0;" edge="1" parent="2Lb6EE8QZ2UszaNFHXsS-1" source="2Lb6EE8QZ2UszaNFHXsS-5" target="2Lb6EE8QZ2UszaNFHXsS-11">
          <mxGeometry relative="1" as="geometry" />
        </mxCell>
        <mxCell id="2Lb6EE8QZ2UszaNFHXsS-5" value="准备运输" style="whiteSpace=wrap;html=1;verticalAlign=top;rounded=1;labelBackgroundColor=#ffffff;" vertex="1" parent="2Lb6EE8QZ2UszaNFHXsS-1">
          <mxGeometry x="290" y="35" width="85" height="30" as="geometry" />
        </mxCell>
        <mxCell id="2Lb6EE8QZ2UszaNFHXsS-17" style="edgeStyle=orthogonalEdgeStyle;rounded=0;orthogonalLoop=1;jettySize=auto;html=1;exitX=1;exitY=0.5;exitDx=0;exitDy=0;exitPerimeter=0;" edge="1" parent="2Lb6EE8QZ2UszaNFHXsS-1" source="2Lb6EE8QZ2UszaNFHXsS-11" target="2Lb6EE8QZ2UszaNFHXsS-14">
          <mxGeometry relative="1" as="geometry" />
        </mxCell>
        <mxCell id="2Lb6EE8QZ2UszaNFHXsS-11" value="接收请求" style="points=[[0.145,0.145,0],[0.5,0,0],[0.855,0.145,0],[1,0.5,0],[0.855,0.855,0],[0.5,1,0],[0.145,0.855,0],[0,0.5,0]];shape=mxgraph.bpmn.event;html=1;verticalLabelPosition=bottom;labelBackgroundColor=#ffffff;verticalAlign=top;align=center;perimeter=ellipsePerimeter;outlineConnect=0;aspect=fixed;outline=boundInt;symbol=message;" vertex="1" parent="2Lb6EE8QZ2UszaNFHXsS-1">
          <mxGeometry x="400" y="25" width="50" height="50" as="geometry" />
        </mxCell>
        <mxCell id="2Lb6EE8QZ2UszaNFHXsS-20" style="edgeStyle=orthogonalEdgeStyle;rounded=0;orthogonalLoop=1;jettySize=auto;html=1;exitX=1;exitY=0.5;exitDx=0;exitDy=0;exitPerimeter=0;" edge="1" parent="2Lb6EE8QZ2UszaNFHXsS-1" source="2Lb6EE8QZ2UszaNFHXsS-14" target="2Lb6EE8QZ2UszaNFHXsS-19">
          <mxGeometry relative="1" as="geometry" />
        </mxCell>
        <mxCell id="2Lb6EE8QZ2UszaNFHXsS-14" value="提供细节" style="points=[[0.145,0.145,0],[0.5,0,0],[0.855,0.145,0],[1,0.5,0],[0.855,0.855,0],[0.5,1,0],[0.145,0.855,0],[0,0.5,0]];shape=mxgraph.bpmn.event;html=1;verticalLabelPosition=bottom;labelBackgroundColor=#ffffff;verticalAlign=top;align=center;perimeter=ellipsePerimeter;outlineConnect=0;aspect=fixed;outline=throwing;symbol=message;" vertex="1" parent="2Lb6EE8QZ2UszaNFHXsS-1">
          <mxGeometry x="470" y="25" width="50" height="50" as="geometry" />
        </mxCell>
        <mxCell id="2Lb6EE8QZ2UszaNFHXsS-19" value="提供货运单" style="points=[[0.145,0.145,0],[0.5,0,0],[0.855,0.145,0],[1,0.5,0],[0.855,0.855,0],[0.5,1,0],[0.145,0.855,0],[0,0.5,0]];shape=mxgraph.bpmn.event;html=1;verticalLabelPosition=bottom;labelBackgroundColor=#ffffff;verticalAlign=top;align=center;perimeter=ellipsePerimeter;outlineConnect=0;aspect=fixed;outline=end;symbol=message;" vertex="1" parent="2Lb6EE8QZ2UszaNFHXsS-1">
          <mxGeometry x="540" y="25" width="50" height="50" as="geometry" />
        </mxCell>
        <mxCell id="2Lb6EE8QZ2UszaNFHXsS-55" style="edgeStyle=orthogonalEdgeStyle;rounded=0;orthogonalLoop=1;jettySize=auto;html=1;exitX=0.5;exitY=1;exitDx=0;exitDy=0;exitPerimeter=0;" edge="1" parent="2Lb6EE8QZ2UszaNFHXsS-1" source="2Lb6EE8QZ2UszaNFHXsS-11" target="2Lb6EE8QZ2UszaNFHXsS-11">
          <mxGeometry relative="1" as="geometry" />
        </mxCell>
        <mxCell id="2Lb6EE8QZ2UszaNFHXsS-33" value="中间商" style="swimlane;html=1;startSize=20;fontStyle=0;collapsible=0;horizontal=0;swimlaneLine=1;swimlaneFillColor=#ffffff;strokeWidth=2;whiteSpace=wrap;" vertex="1" parent="1">
          <mxGeometry x="60" y="260" width="260" height="100" as="geometry" />
        </mxCell>
        <mxCell id="2Lb6EE8QZ2UszaNFHXsS-34" value="" style="edgeStyle=orthogonalEdgeStyle;rounded=0;orthogonalLoop=1;jettySize=auto;html=1;entryX=0;entryY=0.5;entryDx=0;entryDy=0;entryPerimeter=0;" edge="1" parent="2Lb6EE8QZ2UszaNFHXsS-33" source="2Lb6EE8QZ2UszaNFHXsS-35" target="2Lb6EE8QZ2UszaNFHXsS-43">
          <mxGeometry relative="1" as="geometry">
            <mxPoint x="170" y="50" as="targetPoint" />
          </mxGeometry>
        </mxCell>
        <mxCell id="2Lb6EE8QZ2UszaNFHXsS-35" value="接收订单" style="points=[[0.145,0.145,0],[0.5,0,0],[0.855,0.145,0],[1,0.5,0],[0.855,0.855,0],[0.5,1,0],[0.145,0.855,0],[0,0.5,0]];shape=mxgraph.bpmn.event;html=1;verticalLabelPosition=bottom;labelBackgroundColor=#ffffff;verticalAlign=top;align=center;perimeter=ellipsePerimeter;outlineConnect=0;aspect=fixed;outline=standard;symbol=message;" vertex="1" parent="2Lb6EE8QZ2UszaNFHXsS-33">
          <mxGeometry x="40" y="25" width="50" height="50" as="geometry" />
        </mxCell>
        <mxCell id="2Lb6EE8QZ2UszaNFHXsS-42" style="edgeStyle=orthogonalEdgeStyle;rounded=0;orthogonalLoop=1;jettySize=auto;html=1;exitX=1;exitY=0.5;exitDx=0;exitDy=0;exitPerimeter=0;" edge="1" parent="2Lb6EE8QZ2UszaNFHXsS-33" source="2Lb6EE8QZ2UszaNFHXsS-43" target="2Lb6EE8QZ2UszaNFHXsS-44">
          <mxGeometry relative="1" as="geometry" />
        </mxCell>
        <mxCell id="2Lb6EE8QZ2UszaNFHXsS-43" value="转发订单" style="points=[[0.145,0.145,0],[0.5,0,0],[0.855,0.145,0],[1,0.5,0],[0.855,0.855,0],[0.5,1,0],[0.145,0.855,0],[0,0.5,0]];shape=mxgraph.bpmn.event;html=1;verticalLabelPosition=bottom;labelBackgroundColor=#ffffff;verticalAlign=top;align=center;perimeter=ellipsePerimeter;outlineConnect=0;aspect=fixed;outline=throwing;symbol=message;" vertex="1" parent="2Lb6EE8QZ2UszaNFHXsS-33">
          <mxGeometry x="120" y="25" width="50" height="50" as="geometry" />
        </mxCell>
        <mxCell id="2Lb6EE8QZ2UszaNFHXsS-44" value="运输订单" style="points=[[0.145,0.145,0],[0.5,0,0],[0.855,0.145,0],[1,0.5,0],[0.855,0.855,0],[0.5,1,0],[0.145,0.855,0],[0,0.5,0]];shape=mxgraph.bpmn.event;html=1;verticalLabelPosition=bottom;labelBackgroundColor=#ffffff;verticalAlign=top;align=center;perimeter=ellipsePerimeter;outlineConnect=0;aspect=fixed;outline=end;symbol=message;" vertex="1" parent="2Lb6EE8QZ2UszaNFHXsS-33">
          <mxGeometry x="190" y="25" width="50" height="50" as="geometry" />
        </mxCell>
        <mxCell id="2Lb6EE8QZ2UszaNFHXsS-47" value="特定承运人" style="swimlane;html=1;startSize=20;fontStyle=0;collapsible=0;horizontal=0;swimlaneLine=1;swimlaneFillColor=#ffffff;strokeWidth=2;whiteSpace=wrap;" vertex="1" parent="1">
          <mxGeometry x="360" y="260" width="370" height="100" as="geometry" />
        </mxCell>
        <mxCell id="2Lb6EE8QZ2UszaNFHXsS-48" value="" style="edgeStyle=orthogonalEdgeStyle;rounded=0;orthogonalLoop=1;jettySize=auto;html=1;entryX=0;entryY=0.5;entryDx=0;entryDy=0;entryPerimeter=0;" edge="1" parent="2Lb6EE8QZ2UszaNFHXsS-47" source="2Lb6EE8QZ2UszaNFHXsS-49" target="2Lb6EE8QZ2UszaNFHXsS-51">
          <mxGeometry relative="1" as="geometry">
            <mxPoint x="142" y="50" as="targetPoint" />
          </mxGeometry>
        </mxCell>
        <mxCell id="2Lb6EE8QZ2UszaNFHXsS-49" value="接收订单" style="points=[[0.145,0.145,0],[0.5,0,0],[0.855,0.145,0],[1,0.5,0],[0.855,0.855,0],[0.5,1,0],[0.145,0.855,0],[0,0.5,0]];shape=mxgraph.bpmn.event;html=1;verticalLabelPosition=bottom;labelBackgroundColor=#ffffff;verticalAlign=top;align=center;perimeter=ellipsePerimeter;outlineConnect=0;aspect=fixed;outline=standard;symbol=message;" vertex="1" parent="2Lb6EE8QZ2UszaNFHXsS-47">
          <mxGeometry x="32" y="25" width="50" height="50" as="geometry" />
        </mxCell>
        <mxCell id="2Lb6EE8QZ2UszaNFHXsS-51" value="请求细节" style="points=[[0.145,0.145,0],[0.5,0,0],[0.855,0.145,0],[1,0.5,0],[0.855,0.855,0],[0.5,1,0],[0.145,0.855,0],[0,0.5,0]];shape=mxgraph.bpmn.event;html=1;verticalLabelPosition=bottom;labelBackgroundColor=#ffffff;verticalAlign=top;align=center;perimeter=ellipsePerimeter;outlineConnect=0;aspect=fixed;outline=throwing;symbol=message;" vertex="1" parent="2Lb6EE8QZ2UszaNFHXsS-47">
          <mxGeometry x="100" y="25" width="50" height="50" as="geometry" />
        </mxCell>
        <mxCell id="2Lb6EE8QZ2UszaNFHXsS-52" value="提货单" style="points=[[0.145,0.145,0],[0.5,0,0],[0.855,0.145,0],[1,0.5,0],[0.855,0.855,0],[0.5,1,0],[0.145,0.855,0],[0,0.5,0]];shape=mxgraph.bpmn.event;html=1;verticalLabelPosition=bottom;labelBackgroundColor=#ffffff;verticalAlign=top;align=center;perimeter=ellipsePerimeter;outlineConnect=0;aspect=fixed;outline=end;symbol=message;" vertex="1" parent="2Lb6EE8QZ2UszaNFHXsS-47">
          <mxGeometry x="312" y="25" width="50" height="50" as="geometry" />
        </mxCell>
        <mxCell id="2Lb6EE8QZ2UszaNFHXsS-67" style="edgeStyle=orthogonalEdgeStyle;rounded=0;orthogonalLoop=1;jettySize=auto;html=1;exitX=1;exitY=0.5;exitDx=0;exitDy=0;exitPerimeter=0;" edge="1" parent="2Lb6EE8QZ2UszaNFHXsS-47" source="2Lb6EE8QZ2UszaNFHXsS-56" target="2Lb6EE8QZ2UszaNFHXsS-52">
          <mxGeometry relative="1" as="geometry" />
        </mxCell>
        <mxCell id="2Lb6EE8QZ2UszaNFHXsS-56" value="接收货运单" style="points=[[0.145,0.145,0],[0.5,0,0],[0.855,0.145,0],[1,0.5,0],[0.855,0.855,0],[0.5,1,0],[0.145,0.855,0],[0,0.5,0]];shape=mxgraph.bpmn.event;html=1;verticalLabelPosition=bottom;labelBackgroundColor=#ffffff;verticalAlign=top;align=center;perimeter=ellipsePerimeter;outlineConnect=0;aspect=fixed;outline=boundInt;symbol=message;" vertex="1" parent="2Lb6EE8QZ2UszaNFHXsS-47">
          <mxGeometry x="240" y="25" width="50" height="50" as="geometry" />
        </mxCell>
        <mxCell id="2Lb6EE8QZ2UszaNFHXsS-62" value="接收细节" style="points=[[0.145,0.145,0],[0.5,0,0],[0.855,0.145,0],[1,0.5,0],[0.855,0.855,0],[0.5,1,0],[0.145,0.855,0],[0,0.5,0]];shape=mxgraph.bpmn.event;html=1;verticalLabelPosition=bottom;labelBackgroundColor=#ffffff;verticalAlign=top;align=center;perimeter=ellipsePerimeter;outlineConnect=0;aspect=fixed;outline=boundInt;symbol=message;" vertex="1" parent="2Lb6EE8QZ2UszaNFHXsS-47">
          <mxGeometry x="170" y="25" width="50" height="50" as="geometry" />
        </mxCell>
        <mxCell id="2Lb6EE8QZ2UszaNFHXsS-65" style="edgeStyle=orthogonalEdgeStyle;rounded=0;orthogonalLoop=1;jettySize=auto;html=1;exitX=1;exitY=0.5;exitDx=0;exitDy=0;exitPerimeter=0;entryX=0;entryY=0.5;entryDx=0;entryDy=0;entryPerimeter=0;" edge="1" parent="2Lb6EE8QZ2UszaNFHXsS-47" source="2Lb6EE8QZ2UszaNFHXsS-51" target="2Lb6EE8QZ2UszaNFHXsS-62">
          <mxGeometry relative="1" as="geometry" />
        </mxCell>
        <mxCell id="2Lb6EE8QZ2UszaNFHXsS-66" style="edgeStyle=orthogonalEdgeStyle;rounded=0;orthogonalLoop=1;jettySize=auto;html=1;exitX=1;exitY=0.5;exitDx=0;exitDy=0;exitPerimeter=0;entryX=0;entryY=0.5;entryDx=0;entryDy=0;entryPerimeter=0;" edge="1" parent="2Lb6EE8QZ2UszaNFHXsS-47" source="2Lb6EE8QZ2UszaNFHXsS-62" target="2Lb6EE8QZ2UszaNFHXsS-56">
          <mxGeometry relative="1" as="geometry" />
        </mxCell>
        <mxCell id="2Lb6EE8QZ2UszaNFHXsS-54" style="edgeStyle=orthogonalEdgeStyle;rounded=0;orthogonalLoop=1;jettySize=auto;html=1;exitX=0.5;exitY=0;exitDx=0;exitDy=0;exitPerimeter=0;dashed=1;endArrow=block;endFill=0;" edge="1" parent="1" source="2Lb6EE8QZ2UszaNFHXsS-43" target="2Lb6EE8QZ2UszaNFHXsS-2">
          <mxGeometry relative="1" as="geometry" />
        </mxCell>
        <mxCell id="2Lb6EE8QZ2UszaNFHXsS-68" style="edgeStyle=orthogonalEdgeStyle;rounded=0;orthogonalLoop=1;jettySize=auto;html=1;exitX=0.5;exitY=0;exitDx=0;exitDy=0;exitPerimeter=0;dashed=1;endArrow=block;endFill=0;" edge="1" parent="1" source="2Lb6EE8QZ2UszaNFHXsS-51" target="2Lb6EE8QZ2UszaNFHXsS-11">
          <mxGeometry relative="1" as="geometry" />
        </mxCell>
        <mxCell id="2Lb6EE8QZ2UszaNFHXsS-69" style="edgeStyle=orthogonalEdgeStyle;rounded=0;orthogonalLoop=1;jettySize=auto;html=1;exitX=0.5;exitY=1;exitDx=0;exitDy=0;exitPerimeter=0;entryX=0.5;entryY=0;entryDx=0;entryDy=0;entryPerimeter=0;dashed=1;endArrow=block;endFill=0;" edge="1" parent="1" source="2Lb6EE8QZ2UszaNFHXsS-14" target="2Lb6EE8QZ2UszaNFHXsS-62">
          <mxGeometry relative="1" as="geometry" />
        </mxCell>
        <mxCell id="2Lb6EE8QZ2UszaNFHXsS-71" style="edgeStyle=orthogonalEdgeStyle;rounded=0;orthogonalLoop=1;jettySize=auto;html=1;exitX=0.5;exitY=1;exitDx=0;exitDy=0;exitPerimeter=0;entryX=0.5;entryY=0;entryDx=0;entryDy=0;entryPerimeter=0;dashed=1;endArrow=block;endFill=0;" edge="1" parent="1" source="2Lb6EE8QZ2UszaNFHXsS-19" target="2Lb6EE8QZ2UszaNFHXsS-56">
          <mxGeometry relative="1" as="geometry">
            <mxPoint x="565" y="205" as="sourcePoint" />
            <mxPoint x="565" y="295" as="targetPoint" />
          </mxGeometry>
        </mxCell>
        <mxCell id="2Lb6EE8QZ2UszaNFHXsS-72" value="制造商" style="swimlane;html=1;startSize=20;fontStyle=0;collapsible=0;horizontal=0;swimlaneLine=1;swimlaneFillColor=#ffffff;strokeWidth=2;whiteSpace=wrap;" vertex="1" parent="1">
          <mxGeometry x="60" y="390" width="670" height="100" as="geometry" />
        </mxCell>
        <mxCell id="2Lb6EE8QZ2UszaNFHXsS-73" value="" style="edgeStyle=orthogonalEdgeStyle;rounded=0;orthogonalLoop=1;jettySize=auto;html=1;" edge="1" parent="2Lb6EE8QZ2UszaNFHXsS-72" source="2Lb6EE8QZ2UszaNFHXsS-74" target="2Lb6EE8QZ2UszaNFHXsS-76">
          <mxGeometry relative="1" as="geometry" />
        </mxCell>
        <mxCell id="2Lb6EE8QZ2UszaNFHXsS-74" value="接收订单" style="points=[[0.145,0.145,0],[0.5,0,0],[0.855,0.145,0],[1,0.5,0],[0.855,0.855,0],[0.5,1,0],[0.145,0.855,0],[0,0.5,0]];shape=mxgraph.bpmn.event;html=1;verticalLabelPosition=bottom;labelBackgroundColor=#ffffff;verticalAlign=top;align=center;perimeter=ellipsePerimeter;outlineConnect=0;aspect=fixed;outline=standard;symbol=message;" vertex="1" parent="2Lb6EE8QZ2UszaNFHXsS-72">
          <mxGeometry x="40" y="25" width="50" height="50" as="geometry" />
        </mxCell>
        <mxCell id="2Lb6EE8QZ2UszaNFHXsS-89" value="" style="edgeStyle=orthogonalEdgeStyle;rounded=0;orthogonalLoop=1;jettySize=auto;html=1;" edge="1" parent="2Lb6EE8QZ2UszaNFHXsS-72" source="2Lb6EE8QZ2UszaNFHXsS-76" target="2Lb6EE8QZ2UszaNFHXsS-85">
          <mxGeometry relative="1" as="geometry" />
        </mxCell>
        <mxCell id="2Lb6EE8QZ2UszaNFHXsS-76" value="计算需求" style="rounded=1;whiteSpace=wrap;html=1;verticalAlign=top;labelBackgroundColor=#ffffff;" vertex="1" parent="2Lb6EE8QZ2UszaNFHXsS-72">
          <mxGeometry x="120" y="35" width="60" height="30" as="geometry" />
        </mxCell>
        <mxCell id="2Lb6EE8QZ2UszaNFHXsS-91" value="" style="edgeStyle=orthogonalEdgeStyle;rounded=0;orthogonalLoop=1;jettySize=auto;html=1;" edge="1" parent="2Lb6EE8QZ2UszaNFHXsS-72" source="2Lb6EE8QZ2UszaNFHXsS-80" target="2Lb6EE8QZ2UszaNFHXsS-86">
          <mxGeometry relative="1" as="geometry" />
        </mxCell>
        <mxCell id="2Lb6EE8QZ2UszaNFHXsS-80" value="接收提货单" style="points=[[0.145,0.145,0],[0.5,0,0],[0.855,0.145,0],[1,0.5,0],[0.855,0.855,0],[0.5,1,0],[0.145,0.855,0],[0,0.5,0]];shape=mxgraph.bpmn.event;html=1;verticalLabelPosition=bottom;labelBackgroundColor=#ffffff;verticalAlign=top;align=center;perimeter=ellipsePerimeter;outlineConnect=0;aspect=fixed;outline=boundInt;symbol=message;" vertex="1" parent="2Lb6EE8QZ2UszaNFHXsS-72">
          <mxGeometry x="330" y="25" width="50" height="50" as="geometry" />
        </mxCell>
        <mxCell id="2Lb6EE8QZ2UszaNFHXsS-81" style="edgeStyle=orthogonalEdgeStyle;rounded=0;orthogonalLoop=1;jettySize=auto;html=1;exitX=1;exitY=0.5;exitDx=0;exitDy=0;exitPerimeter=0;" edge="1" parent="2Lb6EE8QZ2UszaNFHXsS-72" target="2Lb6EE8QZ2UszaNFHXsS-83">
          <mxGeometry relative="1" as="geometry">
            <mxPoint x="520" y="50" as="sourcePoint" />
          </mxGeometry>
        </mxCell>
        <mxCell id="2Lb6EE8QZ2UszaNFHXsS-83" value="交付产品" style="points=[[0.145,0.145,0],[0.5,0,0],[0.855,0.145,0],[1,0.5,0],[0.855,0.855,0],[0.5,1,0],[0.145,0.855,0],[0,0.5,0]];shape=mxgraph.bpmn.event;html=1;verticalLabelPosition=bottom;labelBackgroundColor=#ffffff;verticalAlign=top;align=center;perimeter=ellipsePerimeter;outlineConnect=0;aspect=fixed;outline=end;symbol=message;" vertex="1" parent="2Lb6EE8QZ2UszaNFHXsS-72">
          <mxGeometry x="600" y="25" width="50" height="50" as="geometry" />
        </mxCell>
        <mxCell id="2Lb6EE8QZ2UszaNFHXsS-84" style="edgeStyle=orthogonalEdgeStyle;rounded=0;orthogonalLoop=1;jettySize=auto;html=1;exitX=0.5;exitY=1;exitDx=0;exitDy=0;exitPerimeter=0;" edge="1" parent="2Lb6EE8QZ2UszaNFHXsS-72" source="2Lb6EE8QZ2UszaNFHXsS-80" target="2Lb6EE8QZ2UszaNFHXsS-80">
          <mxGeometry relative="1" as="geometry" />
        </mxCell>
        <mxCell id="2Lb6EE8QZ2UszaNFHXsS-90" value="" style="edgeStyle=orthogonalEdgeStyle;rounded=0;orthogonalLoop=1;jettySize=auto;html=1;" edge="1" parent="2Lb6EE8QZ2UszaNFHXsS-72" source="2Lb6EE8QZ2UszaNFHXsS-85" target="2Lb6EE8QZ2UszaNFHXsS-80">
          <mxGeometry relative="1" as="geometry" />
        </mxCell>
        <mxCell id="2Lb6EE8QZ2UszaNFHXsS-85" value="下订单" style="points=[[0.145,0.145,0],[0.5,0,0],[0.855,0.145,0],[1,0.5,0],[0.855,0.855,0],[0.5,1,0],[0.145,0.855,0],[0,0.5,0]];shape=mxgraph.bpmn.event;html=1;verticalLabelPosition=bottom;labelBackgroundColor=#ffffff;verticalAlign=top;align=center;perimeter=ellipsePerimeter;outlineConnect=0;aspect=fixed;outline=throwing;symbol=message;" vertex="1" parent="2Lb6EE8QZ2UszaNFHXsS-72">
          <mxGeometry x="210" y="25" width="50" height="50" as="geometry" />
        </mxCell>
        <mxCell id="2Lb6EE8QZ2UszaNFHXsS-92" value="" style="edgeStyle=orthogonalEdgeStyle;rounded=0;orthogonalLoop=1;jettySize=auto;html=1;" edge="1" parent="2Lb6EE8QZ2UszaNFHXsS-72" source="2Lb6EE8QZ2UszaNFHXsS-86" target="2Lb6EE8QZ2UszaNFHXsS-87">
          <mxGeometry relative="1" as="geometry" />
        </mxCell>
        <mxCell id="2Lb6EE8QZ2UszaNFHXsS-86" value="报告生产开始" style="points=[[0.145,0.145,0],[0.5,0,0],[0.855,0.145,0],[1,0.5,0],[0.855,0.855,0],[0.5,1,0],[0.145,0.855,0],[0,0.5,0]];shape=mxgraph.bpmn.event;html=1;verticalLabelPosition=bottom;labelBackgroundColor=#ffffff;verticalAlign=top;align=center;perimeter=ellipsePerimeter;outlineConnect=0;aspect=fixed;outline=throwing;symbol=message;" vertex="1" parent="2Lb6EE8QZ2UszaNFHXsS-72">
          <mxGeometry x="420" y="25" width="50" height="50" as="geometry" />
        </mxCell>
        <mxCell id="2Lb6EE8QZ2UszaNFHXsS-87" value="生产" style="rounded=1;whiteSpace=wrap;html=1;verticalAlign=top;labelBackgroundColor=#ffffff;" vertex="1" parent="2Lb6EE8QZ2UszaNFHXsS-72">
          <mxGeometry x="510" y="35" width="60" height="30" as="geometry" />
        </mxCell>
        <mxCell id="2Lb6EE8QZ2UszaNFHXsS-94" value="买家" style="swimlane;html=1;startSize=20;fontStyle=0;collapsible=0;horizontal=0;swimlaneLine=1;swimlaneFillColor=#ffffff;strokeWidth=2;whiteSpace=wrap;" vertex="1" parent="1">
          <mxGeometry x="60" y="510" width="670" height="50" as="geometry" />
        </mxCell>
        <mxCell id="2Lb6EE8QZ2UszaNFHXsS-103" style="edgeStyle=orthogonalEdgeStyle;rounded=0;orthogonalLoop=1;jettySize=auto;html=1;exitX=0.5;exitY=1;exitDx=0;exitDy=0;exitPerimeter=0;" edge="1" parent="2Lb6EE8QZ2UszaNFHXsS-94">
          <mxGeometry relative="1" as="geometry">
            <mxPoint x="355" y="75" as="sourcePoint" />
            <mxPoint x="355" y="75" as="targetPoint" />
          </mxGeometry>
        </mxCell>
        <mxCell id="2Lb6EE8QZ2UszaNFHXsS-109" style="edgeStyle=orthogonalEdgeStyle;rounded=0;orthogonalLoop=1;jettySize=auto;html=1;exitX=0.5;exitY=0;exitDx=0;exitDy=0;exitPerimeter=0;dashed=1;endArrow=block;endFill=0;entryX=0.5;entryY=1;entryDx=0;entryDy=0;entryPerimeter=0;" edge="1" parent="1" source="2Lb6EE8QZ2UszaNFHXsS-85" target="2Lb6EE8QZ2UszaNFHXsS-35">
          <mxGeometry relative="1" as="geometry">
            <mxPoint x="215" y="295" as="sourcePoint" />
            <mxPoint x="215" y="215" as="targetPoint" />
          </mxGeometry>
        </mxCell>
        <mxCell id="2Lb6EE8QZ2UszaNFHXsS-110" style="edgeStyle=orthogonalEdgeStyle;rounded=0;orthogonalLoop=1;jettySize=auto;html=1;exitX=0.5;exitY=1;exitDx=0;exitDy=0;exitPerimeter=0;dashed=1;endArrow=block;endFill=0;entryX=0.5;entryY=0;entryDx=0;entryDy=0;entryPerimeter=0;" edge="1" parent="1" source="2Lb6EE8QZ2UszaNFHXsS-52" target="2Lb6EE8QZ2UszaNFHXsS-80">
          <mxGeometry relative="1" as="geometry">
            <mxPoint x="225" y="305" as="sourcePoint" />
            <mxPoint x="225" y="225" as="targetPoint" />
          </mxGeometry>
        </mxCell>
        <mxCell id="2Lb6EE8QZ2UszaNFHXsS-111" style="edgeStyle=orthogonalEdgeStyle;rounded=0;orthogonalLoop=1;jettySize=auto;html=1;dashed=1;endArrow=block;endFill=0;" edge="1" parent="1" target="2Lb6EE8QZ2UszaNFHXsS-74">
          <mxGeometry relative="1" as="geometry">
            <mxPoint x="125" y="520" as="sourcePoint" />
            <mxPoint x="235" y="235" as="targetPoint" />
          </mxGeometry>
        </mxCell>
        <mxCell id="2Lb6EE8QZ2UszaNFHXsS-112" style="edgeStyle=orthogonalEdgeStyle;rounded=0;orthogonalLoop=1;jettySize=auto;html=1;dashed=1;endArrow=block;endFill=0;exitX=0.5;exitY=1;exitDx=0;exitDy=0;exitPerimeter=0;" edge="1" parent="1" source="2Lb6EE8QZ2UszaNFHXsS-86">
          <mxGeometry relative="1" as="geometry">
            <mxPoint x="135" y="530" as="sourcePoint" />
            <mxPoint x="505" y="520" as="targetPoint" />
          </mxGeometry>
        </mxCell>
        <mxCell id="2Lb6EE8QZ2UszaNFHXsS-113" style="edgeStyle=orthogonalEdgeStyle;rounded=0;orthogonalLoop=1;jettySize=auto;html=1;dashed=1;endArrow=block;endFill=0;exitX=0.5;exitY=1;exitDx=0;exitDy=0;exitPerimeter=0;" edge="1" parent="1" source="2Lb6EE8QZ2UszaNFHXsS-83">
          <mxGeometry relative="1" as="geometry">
            <mxPoint x="515" y="475" as="sourcePoint" />
            <mxPoint x="685" y="520" as="targetPoint" />
          </mxGeometry>
        </mxCell>
      </root>
    </mxGraphModel>
  </diagram>
</mxfile>
